<svg xmlns="http://www.w3.org/2000/svg" width="600" height="600" viewBox="0 0 600 600"><defs><style>.a{fill:#fff;}</style></defs><title>The Diff logo white</title><path class="a" d="M302,359.47a24.59,24.59,0,0,0-17.46-7.21h0A24.58,24.58,0,0,0,267,359.53l-.17.17c-.41.42-.8.84-1.18,1.28a73.61,73.61,0,0,1-41.13-32.84,24.76,24.76,0,0,0-22.18-35.73h0a24.63,24.63,0,0,0-17.53,7.27l-.17.18a24.75,24.75,0,0,0,.06,35,25,25,0,0,0,5.58,4.18v84.07s0,.07,0,.1a24.82,24.82,0,0,0-5.48,4.15l-.17.17a24.75,24.75,0,0,0,35,34.94l.17-.18a24.73,24.73,0,0,0-.06-35,25,25,0,0,0-5.58-4.18h0V354.67c1.53,1.77,3.13,3.5,4.8,5.17a96.63,96.63,0,0,0,41.69,24.67,24.76,24.76,0,0,0,41.17,10.14l.17-.18a24.75,24.75,0,0,0-.06-35Zm-108.38-44.1a9.13,9.13,0,0,1,.84-2.23.16.16,0,0,1,0-.07,8.89,8.89,0,0,1,.55-.86,1.77,1.77,0,0,1,.16-.22,8.61,8.61,0,0,1,.74-.86l.17-.18a8.79,8.79,0,1,1,12.45,12.41l-.17.17a8.77,8.77,0,0,1-6.22,2.58,7.38,7.38,0,0,1-.82,0c-.16,0-.31,0-.46-.06l-.35-.05q-.31-.06-.63-.15l-.16,0q-.36-.11-.72-.24l0,0a8.89,8.89,0,0,1-2.82-1.78l-.2-.18A8.78,8.78,0,0,1,193.62,315.37ZM208.57,451l-.17.17A8.79,8.79,0,0,1,196,438.8l.17-.17A8.79,8.79,0,1,1,208.57,451Zm84.7-73.09a.11.11,0,0,0,0,.05,7.93,7.93,0,0,1-.14.85,1.6,1.6,0,0,1-.05.21,5.61,5.61,0,0,1-.19.67l-.09.27c-.07.2-.15.39-.24.59s-.09.19-.13.29-.19.36-.3.54a2.75,2.75,0,0,1-.17.29c-.11.18-.24.36-.37.54l-.18.24a8.67,8.67,0,0,1-.64.72l-.17.18A8.79,8.79,0,0,1,278.14,371l.17-.17a8.8,8.8,0,0,1,12.43,0,8.48,8.48,0,0,1,.69.79,8.79,8.79,0,0,1,1.83,4.46h0A9.37,9.37,0,0,1,293.27,377.94Z"/><path class="a" d="M414.15,164.72a97.18,97.18,0,0,0-137.43,0L219,222.41A96.51,96.51,0,0,0,191,282.24a36.72,36.72,0,0,1,11.38-1.8h0A36.62,36.62,0,0,1,215,282.68a72.71,72.71,0,0,1,21-43.34l22.1-22.1q33,68.11,103.45,103.69l-22,22a73.14,73.14,0,0,1-23.22,15.69,36.52,36.52,0,0,1,4.94,18.34,37.34,37.34,0,0,1-.42,5.61,96.84,96.84,0,0,0,35.63-22.71l57.69-57.69A97.29,97.29,0,0,0,414.15,164.72ZM373.3,194.29a7.78,7.78,0,1,1,11,11l-.15.15a7.78,7.78,0,1,1-11-11Zm-15.4-19,.15-.15a7.78,7.78,0,1,1,11,11l-.15.15a7.78,7.78,0,0,1-11-11Zm9.18,47.22-.15.15a7.78,7.78,0,1,1-11-11l.15-.15a7.78,7.78,0,1,1,11,11Zm-26.21-30.19a7.78,7.78,0,1,1,11,11l-.15.16a7.78,7.78,0,0,1-11-11Zm-14.44-20,.15-.15a7.78,7.78,0,1,1,11,11l-.15.15a7.78,7.78,0,1,1-11-11Zm-17.21,17.21.15-.15a7.78,7.78,0,0,1,11,11l-.15.15a7.78,7.78,0,1,1-11-11Zm-6.52,28.52a7.77,7.77,0,1,1-11-11l.15-.16a7.78,7.78,0,0,1,11,11Zm14.24,20.16a7.78,7.78,0,1,1-11-11l.15-.15a7.78,7.78,0,1,1,11,11Zm15.4,19-.15.15a7.78,7.78,0,0,1-11-11l.16-.15a7.78,7.78,0,0,1,11,11Zm2.16-36.56a7.78,7.78,0,0,1-11-11l.16-.16a7.78,7.78,0,1,1,11,11Zm4.24,8.15.15-.15a7.78,7.78,0,0,1,11,11l-.15.15a7.78,7.78,0,1,1-11-11Zm12.77,43.63-.15.15a7.78,7.78,0,1,1-11-11l.15-.15a7.78,7.78,0,1,1,11,11Zm4.12-22.89a7.74,7.74,0,0,1,2.27-5.5l.15-.15a7.78,7.78,0,1,1,11,11l-.15.15a7.78,7.78,0,0,1-13.29-5.49Zm16,37.17-.15.15a7.78,7.78,0,0,1-11-11l.16-.15a7.78,7.78,0,0,1,11,11Zm1.19-54.37a7.74,7.74,0,0,1,2.28-5.5l.15-.16a7.78,7.78,0,0,1,11,11l-.15.16a7.78,7.78,0,0,1-13.28-5.5Zm16.36,36.81-.15.15a7.78,7.78,0,1,1-11-11l.15-.15a7.78,7.78,0,0,1,11,11Zm.84-54a7.73,7.73,0,0,1,2.29-5.51l.15-.16a7.78,7.78,0,1,1,11,11l-.15.16A7.78,7.78,0,0,1,390,215.19ZM406.39,252l-.15.15a7.78,7.78,0,1,1-11-11l.15-.15a7.78,7.78,0,0,1,11,11Z"/></svg>